<?xml version="1.0" encoding="utf-8"?>
<!-- Generator: Adobe Illustrator 16.0.0, SVG Export Plug-In . SVG Version: 6.00 Build 0)  -->
<!DOCTYPE svg PUBLIC "-//W3C//DTD SVG 1.1//EN" "http://www.w3.org/Graphics/SVG/1.1/DTD/svg11.dtd">
<svg version="1.1" id="Capa_1" xmlns="http://www.w3.org/2000/svg" xmlns:xlink="http://www.w3.org/1999/xlink" x="0px" y="0px"
	 width="300.333px" height="60px" viewBox="0 0 300.333 60" enable-background="new 0 0 300.333 60" xml:space="preserve">
<linearGradient id="SVGID_1_" gradientUnits="userSpaceOnUse" x1="14.689" y1="6.1221" x2="17.5938" y2="53.1811">
	<stop  offset="0" style="stop-color:#EDC43B"/>
	<stop  offset="0.143" style="stop-color:#E39F46"/>
	<stop  offset="0.3337" style="stop-color:#D87553"/>
	<stop  offset="0.5196" style="stop-color:#CF545E"/>
	<stop  offset="0.6965" style="stop-color:#C83C65"/>
	<stop  offset="0.8607" style="stop-color:#C42E69"/>
	<stop  offset="1" style="stop-color:#C3296B"/>
</linearGradient>
<path fill="url(#SVGID_1_)" d="M32.3,54.06c0,2.566-2.089,4.648-4.664,4.648H4.663C2.087,58.708,0,56.626,0,54.06V5.514
	c0-2.566,2.087-4.647,4.663-4.647h22.974c2.575,0,4.664,2.081,4.664,4.647V54.06z"/>
<linearGradient id="SVGID_2_" gradientUnits="userSpaceOnUse" x1="47.646" y1="4.0938" x2="50.5509" y2="51.1531">
	<stop  offset="0.2267" style="stop-color:#85B470"/>
	<stop  offset="1" style="stop-color:#6EB3B7"/>
</linearGradient>
<path fill="url(#SVGID_2_)" d="M65.382,54.06c0,2.566-2.088,4.648-4.663,4.648H37.746c-2.577,0-4.664-2.082-4.664-4.648V5.514
	c0-2.566,2.087-4.647,4.664-4.647h22.974c2.575,0,4.663,2.081,4.663,4.647V54.06z"/>
<radialGradient id="SVGID_3_" cx="-24.5454" cy="-44.5649" r="121.7262" gradientTransform="matrix(0.3886 0 0 0.3873 92.1056 19.2082)" gradientUnits="userSpaceOnUse">
	<stop  offset="0" style="stop-color:#99448A"/>
	<stop  offset="0.194" style="stop-color:#85448B"/>
	<stop  offset="0.4486" style="stop-color:#65458C"/>
	<stop  offset="0.4761" style="stop-color:#62468D"/>
	<stop  offset="0.8107" style="stop-color:#444F94"/>
	<stop  offset="1" style="stop-color:#395397"/>
</radialGradient>
<path fill="url(#SVGID_3_)" d="M98.247,54.06c0,2.566-2.088,4.648-4.664,4.648H70.61c-2.575,0-4.663-2.082-4.663-4.648V5.514
	c0-2.566,2.087-4.647,4.663-4.647h22.974c2.576,0,4.664,2.081,4.664,4.647V54.06z"/>
<linearGradient id="SVGID_4_" gradientUnits="userSpaceOnUse" x1="113.3433" y1="0.0522" x2="116.2482" y2="47.1116">
	<stop  offset="0" style="stop-color:#F4E73E"/>
	<stop  offset="0.2346" style="stop-color:#E0DE4A"/>
	<stop  offset="0.712" style="stop-color:#ADC767"/>
	<stop  offset="1" style="stop-color:#8BB87B"/>
</linearGradient>
<path fill="url(#SVGID_4_)" d="M131.328,54.06c0,2.566-2.087,4.648-4.663,4.648h-22.974c-2.576,0-4.663-2.082-4.663-4.648V5.514
	c0-2.566,2.087-4.647,4.663-4.647h22.974c2.575,0,4.663,2.081,4.663,4.647V54.06z"/>
<g>
	<g>
		<path fill="#FFFFFF" d="M65.324,26.812c-0.346-0.348-0.766-0.424-1.233-0.33c-0.053,0.042-0.106,0.079-0.158,0.116l-0.11-0.554
			c1.765-0.654,3.024-2.342,3.024-4.329c0-2.553-2.076-4.622-4.637-4.622c-2.561,0-4.638,2.069-4.638,4.622
			c0,2.162,1.492,3.972,3.505,4.477c-0.018,0.154-0.049,0.364-0.106,0.571c-0.135-0.063-0.269-0.132-0.404-0.208
			c-0.305-0.04-0.568,0.044-0.792,0.257c-0.761,0.103-1.056,0.072-1.908,0.545c-2.793,1.549-2.968,0.442-5.267-0.676
			c-0.402-0.195-0.506-0.537-1.428-0.577c-0.48,0.043-0.893,0.252-1.299,0.476l-0.179-0.674c0.913-0.421,1.667-1.126,2.141-2.007
			c0.316,0.064,0.694-0.556,0.854-0.613c0.219-0.079,0-0.948,0-0.948s0.128,0.396,0.506-0.356c0.377-0.75-0.22-0.434-0.346-1.146
			c-0.099-0.548-0.512-0.579-0.696-0.565c-0.61-1.844-2.348-3.177-4.403-3.177c-2.054,0-3.794,1.334-4.404,3.177
			c-0.184-0.014-0.598,0.017-0.695,0.565c-0.125,0.712-0.724,0.395-0.346,1.146c0.377,0.751,0.505,0.356,0.505,0.356
			s-0.219,0.869,0,0.948c0.16,0.057,0.539,0.679,0.852,0.613c0.506,0.934,1.32,1.675,2.307,2.084
			c-0.021,0.138-0.06,0.314-0.119,0.49c-0.65-0.384-1.306-0.75-2.162-0.329c-7.673,2.874-9.072,15.15-7.005,15.536
			c2.019,0.376,1.858-1.344,3.184-6.227c0.595-2.193,1.656-3.387,2.583-4.036c0.226,5.357,1.124,21.896,1.293,25.999
			c0.051,1.25,0.281,2.305,1.773,2.229c1.491-0.072,1.589-1.204,1.629-2.413c0.028-0.861-1.07-12.411,0.605-11.908
			c1.854-0.756,1.102,11.166,1.257,12.126c0.165,1.026-0.202,2.317,1.626,2.248c1.607-0.063,1.624-1.683,1.65-2.598
			c0.357-12.279,0.07-16.048,0.103-17.648c0.014-1.192-0.008-3.74,0.154-6.388c0.718,1.187,0.646,1.845,0.563,3.339
			c0.031,0.778-0.063,1.853,0.535,2.512c0.599,0.849,1.64,0.911,2.238,0.064c0.914-1.195,0.914-5.34,1.828-5.042
			c1.07-0.059-2.439,12.876-2.612,15.992c-0.13,2.335-0.634,3.277,2.35,3.053c1.199-0.09,1.048,0.823,1.078,1.586
			c0.047,1.217-0.049,2.467,0.216,3.638c0.137,0.605,0.432,1.49,1.519,1.492c1.577,0.002,1.955-0.995,1.895-5.96
			c-0.016-1.349,1.164-0.971,1.023,0c0.047,0.663,0.05,3.234,0.032,3.896c-0.029,1.167,0.355,2.02,1.639,2.018
			c1.229-0.002,1.747-0.782,1.729-1.962c-0.009-0.668-0.056-2.311-0.042-2.976c0.03-1.305-0.318-1.821,2.113-1.854
			c1.478-0.019,2.059-0.727,1.781-2.148c-0.326-1.667-0.904-5.636-1.586-8.395c-0.455-1.845,0.447,0.179,1.566,0.242
			c1.562,0.088,1.458-1.187,1.513-0.378c0.472,7.068,0.649,8.541,0.694,13.543c0.008,1.008-0.119,2.645,0.092,3.404
			c0.348,0.187,0.992,0.139,1.01-0.84c0.149-8.431-0.056-18.514-2.64-26.677C70.008,28.251,67.699,26.356,65.324,26.812z"/>
		<path fill="#FFFFFF" d="M87.85,29.087c-0.264-1.273,0.202-1.946,1.285-2.82c2.721-2.197,5.193-4.701,5.824-8.439
			c0.168-1.01,0.283-1.818-0.851-2.142c-1.067-0.304-1.427,0.229-1.866,1.274c-0.736,1.752-1.684,3.482-3.314,4.693
			c-1.488,1.106-2.983,1.864-4.471,2.279l-0.282-1.127c1.545-0.749,2.612-2.325,2.612-4.152c0-0.777-0.196-1.511-0.536-2.153
			c2.4-0.896,3.948-1.745,3.824-2.184c-0.132-0.467-2.139-0.337-4.931,0.243c-0.363-0.76-0.864-1.748-1.255-2.279
			c-0.693-0.942-6.239,1.131-6.934,1.751c-0.469,0.419-0.048,1.913,0.272,2.836c-2.195,0.846-3.586,1.632-3.467,2.049
			c0.113,0.399,1.596,0.363,3.763-0.019c0.104,1.964,1.434,3.603,3.244,4.167c-0.027,0.251-0.12,0.827-0.398,1.145
			c-2.913-0.426-5.771-2.188-8.497-5.286c-0.613-0.699-1.015-2.092-2.287-1.25c-1.201,0.796-0.914,1.8-0.16,3.003
			c1.553,2.478,3.396,4.59,6.047,5.868c1.106,0.532,2.276,1.064,2.356,2.351c0.358,5.81,0.801,11.631,0.793,17.448
			c-0.003,3.461-0.8,6.919-1.2,10.385c-0.128,1.093-0.751,2.534,0.894,2.95c1.715,0.434,2.142-0.851,2.485-2.245
			c1.004-4.082,2.113-8.141,3.334-12.796c2.053,4.244,1.072,8.43,1.179,12.514c0.033,1.293-0.256,2.874,1.457,3.116
			c1.535,0.218,1.732-1.334,2.014-2.417c0.851-3.256,2.077-6.703,1.148-9.913C88.138,41.719,89.134,35.295,87.85,29.087z"/>
		<path fill="#FFFFFF" d="M119.756,48.257c-2.459-1.577-3.462-3.388-2.429-5.911c1.064,0.84,3.573,3.616,4.657,4.419
			c0.537,0.395,1.233,0.668,1.745,0.067c0.5-0.588,0.18-1.207-0.352-1.669c-2.134-1.852-4.674-5.536-6.038-8.052
			c0.338,0.096,0.693,0.15,1.063,0.15c2.143,0,3.881-1.731,3.881-3.867c0-2.136-1.738-3.868-3.881-3.868
			c-0.136,0-0.271,0.007-0.404,0.021c-0.804,0.022-1.588,0.322-2.277,1.032c-0.107,0.11-0.204,0.221-0.293,0.333
			c-0.566,0.672-0.908,1.538-0.908,2.483c0,0.932,0.333,1.788,0.882,2.455c-4.669,0.814-7.77,3.689-10.242,7.397
			c-0.384,0.577-0.469,1.447,0.31,1.891c0.702,0.401,1.246-0.108,1.61-0.662c0.672-1.024,1.873-2.484,3.345-3.298
			c-0.232,2.354-0.962,4.876-0.316,6.531c0.983,2.514-0.146,4.315-0.94,6.372c-0.503,1.301-1.436,2.284-2.197,3.396
			c-0.49,0.717-0.804,1.626-0.107,2.173c0.638,0.5,1.628,0.302,2.3-0.318c1.866-1.723,2.351-3.501,4.113-6.212
			c0.739-1.139,0.699-2.784,2.076-2.667c5.062,0.43,7.918,6.222,8.552,6.946c0.545,0.626,1.081,0.519,1.694,0.103
			c0.609-0.413,0.635-1.063,0.341-1.49C124.056,53.271,123.218,50.475,119.756,48.257z"/>
		<path fill="#FFFFFF" d="M127.148,47.186c-1.665,0.092-3.428,2.039-3.371,3.72c0.06,1.763,1.665,3.21,3.537,3.187
			c1.907-0.022,3.371-1.47,3.363-3.329C130.668,49.005,128.787,47.095,127.148,47.186z"/>
		<path fill="#FFFFFF" d="M36.088,29.662c0.599-1.295,0.729-2.401,0.452-3.297l0.302-1.311c2.648-0.086,4.771-2.246,4.771-4.905
			c0-2.713-2.208-4.914-4.931-4.914c-2.721,0-4.928,2.2-4.928,4.914c0,1.57,0.742,2.966,1.894,3.865
			c-0.006,0.008-0.01,0.015-0.015,0.022c-0.412-0.107-0.861-0.188-1.35-0.24c-1.668-0.176-3.358-0.172-5.04-0.195
			c-2.316-0.031-4.741-1.717-4.548-5.627c0.37,0.138,0.588,0.26,0.588,0.26c0.583,0.151,1.773,2.48,2.435,2.186
			c1.724-0.769-1.97-3.489-1.495-5.319c0.478,0.564,1.191,0.923,1.99,0.923c1.44,0,2.607-1.164,2.607-2.598
			c0-1.435-1.167-2.597-2.607-2.597c-1.176,0-2.169,0.776-2.494,1.844c-1.363,0.134-2.97-0.018-4.215,0.508
			c-2.019,0.856-3.832,2.024-3.254,4.893c0.236,1.18,0.74,2.812-1.096,3.645c-0.624,0.283-0.599,1.198-0.178,1.682
			c0.74,0.847,1.324,0.039,1.886-0.402c1.144-0.898,2.006-1.933,1.82-3.536c-0.115-0.997-0.078-1.943,1.146-1.917
			c-0.679,3.037,0.702,6.711,4.092,8.791c1.097,0.674,2.92,1.432,1.891,3.093c-2.648,4.28-2.311,7.437-3.835,12.542
			c-1.538,3.843-2.241,9.469-1.586,13.742c0.195,1.281,0.027,3.499,2.313,3.266c2.148-0.22,1.38-2.135,1.388-3.399
			c0.023-3.975,0.721-9.639,2.875-13.038c-0.185,4.252,1.047,10.069,2.656,13.838c0.534,1.249,0.928,3.488,2.865,2.773
			c1.832-0.675,0.999-2.477,0.551-4.013C30.53,46.525,32.433,37.581,36.088,29.662z"/>
		<path fill="#FFFFFF" d="M18.91,22.739c-1.498,0.114-1.002,2.027-1.134,3.217c-0.249,2.227-1.229,3.144-3.97,3.051
			c-1.605-0.057-2.932,0.037-4.285,0.177c-0.167-0.216-0.322-0.443-0.439-0.627c0.998-0.846,1.632-2.106,1.632-3.516
			c0-1.646-0.866-3.086-2.164-3.905c0.058-0.112,0.129-0.187,0.197-0.187c0.283,0,0.662,0.425,0.662,0.425
			c0.136-0.324,0.046-1.744-1.56-1.838c-1.017-0.06-1.503,0.352-1.724,0.663c-0.182-0.023-0.408-0.042-0.686-0.05
			c0,0-4.687,0.363-3.998,6.188c0.688,5.826,1.603,9.312,0.404,10.128c0,0,0.492,0.1,0.852-0.282c0,0,0.046,0.989-0.695,1.729
			c0,0,1.924-0.707,2.538-2.734c0,0,0.063,0.85-0.399,1.697c0,0,1.407-0.691,1.58-2.238c0,0,0.238,0.573-0.015,1.187
			c0,0,1.107-1.423,1.412-2.782c0.605,4.165,0.872,11.23-2.815,16.695c0,0,2.309,0.634,5.393,0.474
			c-0.337,2.457-0.856,4.773-1.633,7.02c-0.456,1.314-0.417,2.443,0.851,2.883c1.188,0.412,2.248-0.656,2.699-1.62
			c1.441-3.082,1.487-5.88,2.032-8.94c0.482-0.143,0.967-0.312,1.454-0.509c0.666,2.063,1.009,4.801,1.235,8.801
			c0.066,1.16,0.322,2.22,1.484,2.291c1.198,0.072,1.535-0.966,1.622-2.121c0.292-3.895-0.045-6.218-0.573-8.785
			c-1.385-6.726-2.034-9.762-4.403-14.889c-0.508-1.098-0.678-2.5,0.619-2.712c3.971-0.642,4.891-2.856,4.843-5.023
			C19.89,25.058,20.234,22.64,18.91,22.739z"/>
		<path fill="#FFFFFF" d="M103.146,35.409c0.19-0.144,0.417-0.288,0.694-0.439c3.347-1.833,4.678-3.855,5.625-5.824
			c0.404-0.841,0.952-1.73-0.4-2.171c-0.906-0.294-1.281,0.35-1.636,1.174c-1.021,2.357-2.644,4.117-5.352,4.557
			c-0.297,0-0.572,0.004-0.839,0.011l-0.034-0.2c1.544-0.628,2.636-2.137,2.636-3.901c0-0.744-0.195-1.441-0.535-2.047
			c0.442-0.229,0.664-0.746,0.5-1.231c-0.009-0.027-0.024-0.051-0.035-0.076c0.004-0.003,0.007-0.004,0.012-0.007
			c0.494-0.283,0.463,0.097,0.463,0.097c-0.45,1.778,2.922,3.137,2.922,3.137c-0.854-1.943-0.14-4.751-1.831-4.932
			c-1.689-0.182-1.841,1.332-1.841,1.332c0,0,0,0.001,0,0.002c-0.265-0.227-0.636-0.314-0.991-0.195
			c-0.233,0.078-0.415,0.231-0.535,0.421c-0.673-0.452-1.486-0.716-2.358-0.716c-0.708,0-1.375,0.176-1.962,0.483
			c-0.187-0.252-0.485-0.418-0.825-0.418c-0.271,0-0.518,0.108-0.701,0.28c-0.134-0.336-0.646-1.3-2.076-0.962
			c-1.72,0.407-0.537,3.098-1.113,5.14c0,0,3.274-1.802,2.527-3.505c0,0-0.074-0.321,0.373-0.185
			c-0.022,0.082-0.037,0.167-0.037,0.255c0,0.294,0.126,0.558,0.326,0.746c-0.467,0.677-0.74,1.497-0.74,2.381
			c0,1.961,1.347,3.604,3.167,4.074c-0.012,0.045-0.025,0.088-0.039,0.13c-0.258,0.005-0.521,0.01-0.805,0.01
			c-2.526-0.533-4.384-2.656-5.734-4.543c-0.447-0.626-0.652-1.647-1.666-1.176c-0.97,0.453-0.535,1.462-0.251,2.103
			c1.289,2.904,4.295,4.689,6.124,5.885c0.381,0.248,0.609,0.48,0.734,0.712c-0.109,0.616-0.254,1.396-0.435,2.271
			c-0.053,0.179-0.096,0.368-0.123,0.572c-0.708,3.278-1.874,7.522-3.421,9.192c0,0,1.239,0.486,3.133,0.901
			c-0.247,2.578-0.524,5.488-0.576,9.423c-0.01,0.854-0.386,2.065,0.981,2.124c1.074,0.047,1.304-0.909,1.583-1.883
			c0.499-1.735,0.48-6.562,1.025-9.184c0.478,0.046,0.971,0.079,1.475,0.093c0.427,3.401,0.671,6.707,0.636,8.832
			c-0.02,1.157,0.265,2.283,1.656,2.111c1.322-0.16,0.992-1.713,0.992-2.525c0.001-2.907-0.027-5.744-0.083-8.582
			c0.741-0.105,1.486-0.263,2.221-0.487C105.978,48.667,103.116,39.13,103.146,35.409z"/>
	</g>
</g>
<g>
	<g>
		<path fill="#58595A" d="M153.273,15.774c0.739,0.699,1.107,1.619,1.107,2.686c0,0.701,0,0.811-0.036,1.362
			c1.735-2.797,3.36-3.9,5.798-4.047c1.44-0.074,2.66,0.404,3.361,1.289c0.517,0.663,0.702,1.287,0.666,2.614
			c0.922-1.363,1.438-1.951,2.289-2.542c1.107-0.846,2.548-1.361,3.768-1.361c2.696,0,4.357,1.361,4.505,3.682
			c0.038,0.625,0,1.289-0.111,1.987l-1.771,11.815h-5.65l1.477-9.792c0.074-0.441,0.111-0.921,0.111-1.141
			c0-1.03-0.37-1.472-1.293-1.472c-1.109,0-1.995,0.809-3.323,3.055l-1.403,9.35h-5.652l1.479-9.792
			c0.036-0.405,0.073-0.772,0.073-1.141c0-1.03-0.369-1.472-1.258-1.472c-1.144,0-2.029,0.809-3.358,3.055l-1.403,9.35h-5.651
			l1.514-10.16c0.111-0.589,0.186-1.287,0.26-2.134c0.111-0.995,0.111-0.958,0.111-2.246c0-0.479-0.149-1.069-0.443-1.768
			L153.273,15.774z"/>
		<path fill="#58595A" d="M181.119,33.259h-5.65l2.549-17.043h5.649L181.119,33.259z M184.701,11.467c0,2.024-1.44,3.46-3.435,3.46
			c-1.81,0-2.917-1.142-2.917-3.019c0-1.841,1.515-3.313,3.435-3.313C183.482,8.596,184.701,9.773,184.701,11.467z"/>
		<path fill="#1F1E21" d="M200.619,26.08l-0.149,1.326c-0.257,2.024,0.185,2.65,1.774,2.54l-1.033,3.459
			c-1.405,0.259-2.069,0.295-2.993,0.259c-2.142-0.111-3.323-1.289-3.323-3.239c-1.699,2.502-3.139,3.386-5.467,3.386
			c-3.508,0-5.577-2.98-5.207-7.472c0.295-3.682,1.847-6.699,4.433-8.541c1.845-1.325,4.21-2.098,6.426-2.098
			c2.29,0,4.468,0.368,6.943,1.141L200.619,26.08z M195.853,20.375c-0.258-0.073-0.443-0.11-0.553-0.11
			c-1.146-0.183-2.401,0.148-3.177,0.736c-1.107,0.92-1.958,2.798-2.143,4.712c-0.185,1.913,0.482,3.019,1.811,3.094
			c1.033,0.071,1.884-0.628,3.177-2.503L195.853,20.375z"/>
		<path fill="#1F1E21" d="M208.927,33.259h-5.651l3.805-25.325h5.649L208.927,33.259z"/>
		<path fill="#1F1E21" d="M224.439,21.921c-1.331-1.067-1.848-1.288-2.734-1.252c-1.883,0.075-3.51,2.356-3.51,4.896
			c0,2.099,0.851,3.313,2.364,3.387c1.071,0.073,1.735-0.221,3.582-1.509l1.146,4.012c-2.179,1.693-3.914,2.355-6.315,2.355
			c-4.171,0-6.795-2.943-6.795-7.73c0-5.447,4.395-10.416,9.232-10.416c2.364,0,3.842,0.588,5.614,2.208L224.439,21.921z"/>
		<path fill="#1F1E21" d="M242.903,26.08l-0.147,1.326c-0.259,2.024,0.185,2.65,1.772,2.54l-1.033,3.459
			c-1.403,0.259-2.068,0.295-2.992,0.259c-2.141-0.111-3.324-1.289-3.324-3.239c-1.698,2.502-3.139,3.386-5.464,3.386
			c-3.511,0-5.578-2.98-5.209-7.472c0.297-3.682,1.847-6.699,4.432-8.541c1.846-1.325,4.211-2.098,6.427-2.098
			c2.29,0,4.468,0.368,6.943,1.141L242.903,26.08z M238.139,20.375c-0.259-0.073-0.442-0.11-0.554-0.11
			c-1.146-0.183-2.402,0.148-3.177,0.736c-1.108,0.92-1.957,2.798-2.143,4.712c-0.185,1.913,0.48,3.019,1.81,3.094
			c1.036,0.071,1.883-0.628,3.177-2.503L238.139,20.375z"/>
		<path fill="#1F1E21" d="M251.211,33.259h-5.651l3.805-25.325h5.65L251.211,33.259z"/>
		<path fill="#1F1E21" d="M271.338,33.405c-1.402,0.259-2.142,0.295-3.028,0.259c-1.106-0.036-2.141-0.552-2.77-1.289
			c-0.407-0.478-0.554-0.993-0.554-1.95c-1.699,2.502-3.14,3.386-5.467,3.386c-3.508,0-5.574-3.019-5.207-7.472
			c0.553-6.257,5.245-10.896,10.783-10.638c0.333,0,0.852,0.074,1.517,0.146l1.18-7.914h5.652l-2.696,17.926l-0.185,1.547
			c-0.295,1.987,0.147,2.65,1.81,2.54L271.338,33.405z M265.948,20.375c-0.258-0.073-0.443-0.11-0.555-0.11
			c-1.145-0.183-2.401,0.148-3.176,0.736c-1.109,0.92-1.957,2.798-2.143,4.712c-0.185,1.913,0.48,3.019,1.81,3.094
			c1.033,0.071,1.884-0.628,3.177-2.503L265.948,20.375z"/>
		<path fill="#1F1E21" d="M279.018,33.259h-5.649l2.549-17.043h5.65L279.018,33.259z M282.601,11.467c0,2.024-1.438,3.46-3.433,3.46
			c-1.812,0-2.919-1.142-2.919-3.019c0-1.841,1.515-3.313,3.436-3.313C281.382,8.596,282.601,9.773,282.601,11.467z"/>
		<path fill="#1F1E21" d="M298.52,26.08l-0.148,1.326c-0.258,2.024,0.184,2.65,1.772,2.54l-1.034,3.459
			c-1.402,0.259-2.066,0.295-2.989,0.259c-2.145-0.111-3.325-1.289-3.325-3.239c-1.699,2.502-3.14,3.386-5.468,3.386
			c-3.507,0-5.576-2.98-5.206-7.472c0.296-3.682,1.848-6.699,4.431-8.541c1.849-1.325,4.211-2.098,6.427-2.098
			c2.29,0,4.469,0.368,6.942,1.141L298.52,26.08z M293.755,20.375c-0.258-0.073-0.444-0.11-0.555-0.11
			c-1.144-0.183-2.399,0.148-3.176,0.736c-1.108,0.92-1.955,2.798-2.143,4.712c-0.184,1.913,0.48,3.019,1.811,3.094
			c1.034,0.071,1.883-0.628,3.176-2.503L293.755,20.375z"/>
	</g>
	<g>
		<path fill="#1F1E21" d="M149.29,43.396c-0.551-0.36-1.012-0.527-1.462-0.527c-0.618,0-1.058,0.37-1.09,0.919
			c-0.023,0.438,0.157,0.674,0.966,1.301c0.607,0.471,0.844,0.685,1.059,0.952c0.279,0.358,0.438,0.795,0.438,1.198
			c0,0.81-0.314,1.425-0.944,1.828c-0.428,0.28-0.89,0.394-1.588,0.394c-0.696,0-1.539-0.292-2.148-0.752l0.191-1.311
			c0.564,0.615,1.215,0.951,1.936,0.997c0.674,0.045,1.192-0.414,1.192-1.054c0-0.325-0.126-0.55-0.474-0.863
			c-0.101-0.101,0.181,0.135-0.866-0.719c-0.81-0.649-1.068-1.108-1.068-1.913c0-0.629,0.35-1.292,0.878-1.65
			c0.349-0.235,0.909-0.403,1.361-0.403c0.766,0,1.168,0.101,1.91,0.48L149.29,43.396z"/>
		<path fill="#1F1E21" d="M151.211,49.305h-1.17l0.754-5.035h1.182L151.211,49.305z M152.36,42.61c0,0.461-0.338,0.809-0.788,0.809
			c-0.415,0-0.652-0.237-0.652-0.65c0-0.448,0.35-0.786,0.811-0.786C152.089,41.982,152.36,42.24,152.36,42.61z"/>
		<path fill="#1F1E21" d="M155.914,45.368c-0.37-0.214-0.686-0.313-0.99-0.313c-0.403,0-0.721,0.257-0.695,0.559
			c0.01,0.181,0.144,0.359,0.506,0.662c0.831,0.708,1.044,1.008,1.044,1.515c0,0.929-0.832,1.646-1.922,1.646
			c-0.586,0-1.127-0.157-1.609-0.46l0.271-0.964c0.337,0.259,0.765,0.427,1.169,0.449c0.45,0.022,0.821-0.314,0.765-0.684
			c-0.022-0.158-0.102-0.281-0.28-0.46c-0.059-0.057,0.032,0.022-0.248-0.225l-0.168-0.158l-0.17-0.145
			c-0.426-0.393-0.629-0.784-0.605-1.222c0.033-0.818,0.796-1.435,1.786-1.435c0.451,0,0.834,0.091,1.282,0.302L155.914,45.368z"/>
		<path fill="#1F1E21" d="M160.186,45.133h-1.326l-0.338,2.22c-0.021,0.181-0.045,0.382-0.045,0.482
			c0,0.438,0.202,0.639,0.607,0.639c0.336,0,0.473-0.033,0.811-0.179l0.214,0.74c-0.496,0.303-0.912,0.402-1.564,0.402
			c-0.82,0-1.35-0.526-1.293-1.3c0.01-0.191,0.044-0.426,0.091-0.729l0.336-2.275h-0.966l0.101-0.685
			c1.226-0.11,1.35-0.222,1.777-1.558h0.606l-0.214,1.379h1.328L160.186,45.133z"/>
		<path fill="#1F1E21" d="M164.472,48.406c-0.675,0.763-1.272,1.055-2.138,1.055c-1.045,0-1.654-0.797-1.654-2.177
			c0-0.692,0.327-1.612,0.8-2.217c0.461-0.595,1.147-0.956,1.8-0.956c0.89,0,1.438,0.462,1.438,1.212
			c0,0.561-0.45,1.155-1.202,1.582c-0.496,0.279-0.866,0.437-1.619,0.66c0.022,0.202,0.032,0.292,0.065,0.403
			c0.113,0.337,0.384,0.561,0.721,0.596c0.473,0.044,0.889-0.18,1.529-0.817L164.472,48.406z M161.897,46.895
			c1.123-0.372,1.754-0.876,1.799-1.425c0.021-0.304-0.17-0.505-0.484-0.505c-0.371,0-0.742,0.303-1,0.819
			c-0.112,0.224-0.191,0.471-0.249,0.728c0,0-0.021,0.135-0.043,0.259L161.897,46.895z"/>
		<path fill="#1F1E21" d="M170.86,49.305l0.482-3.219c0.021-0.146,0.034-0.302,0.034-0.414c0-0.336-0.146-0.494-0.427-0.483
			c-0.461,0.022-0.865,0.45-1.271,1.313l-0.427,2.804h-1.17l0.461-3.104c0.033-0.17,0.045-0.327,0.056-0.461
			c0.023-0.393-0.146-0.585-0.46-0.538c-0.45,0.066-0.788,0.426-1.237,1.3l-0.428,2.804h-1.17l0.461-3.074
			c0.023-0.179,0.057-0.391,0.08-0.639c0.045-0.448,0.033-0.807-0.057-1.031c0-0.01-0.035-0.066-0.079-0.143l1.001-0.261
			c0.191,0.168,0.279,0.45,0.279,0.841c0,0.069-0.01,0.27-0.033,0.438c0.587-0.898,1.059-1.256,1.724-1.301
			c0.605-0.045,1.011,0.368,1.011,0.997c0,0.089,0,0.18-0.012,0.28c0.597-0.932,1.091-1.277,1.789-1.277
			c0.676,0,1.103,0.392,1.135,1.019c0.013,0.182,0,0.36-0.032,0.538l-0.542,3.612H170.86z"/>
		<path fill="#1F1E21" d="M177.72,47.084c-0.045,0.292-0.091,0.663-0.102,0.885c-0.034,0.483,0.102,0.65,0.562,0.64l-0.236,0.773
			c-0.134,0.034-0.178,0.034-0.348,0.034c-0.81,0-1.113-0.326-1.103-1.188c-0.552,0.884-1.034,1.22-1.742,1.22
			c-0.868,0-1.385-0.794-1.294-1.971c0.145-1.896,1.325-3.262,2.867-3.341c0.563-0.034,1.092,0.045,1.8,0.257L177.72,47.084z
			 M176.842,45.133c-0.326-0.065-0.482-0.077-0.696-0.055c-0.45,0.055-0.775,0.29-1.045,0.784c-0.237,0.414-0.408,0.952-0.441,1.469
			c-0.056,0.74,0.148,1.121,0.598,1.121c0.403,0,0.799-0.395,1.271-1.278L176.842,45.133z"/>
		<path fill="#1F1E21" d="M185.727,47.084c-0.045,0.292-0.09,0.663-0.101,0.885c-0.034,0.483,0.101,0.65,0.561,0.64l-0.236,0.773
			c-0.134,0.034-0.179,0.034-0.348,0.034c-0.81,0-1.112-0.326-1.103-1.188c-0.552,0.884-1.035,1.22-1.743,1.22
			c-0.867,0-1.383-0.794-1.293-1.971c0.156-1.906,1.306-3.25,2.869-3.319c0.2-0.011,0.37,0,0.652,0.034l0.403-2.678h1.169
			L185.727,47.084z M184.849,45.133c-0.326-0.065-0.482-0.077-0.696-0.055c-0.449,0.055-0.776,0.29-1.047,0.784
			c-0.237,0.414-0.404,0.952-0.438,1.469c-0.057,0.74,0.146,1.121,0.595,1.121c0.405,0,0.8-0.395,1.271-1.278L184.849,45.133z"/>
		<path fill="#1F1E21" d="M190.968,48.406c-0.676,0.763-1.271,1.055-2.139,1.055c-1.044,0-1.653-0.797-1.653-2.177
			c0-0.692,0.327-1.612,0.8-2.217c0.461-0.595,1.148-0.956,1.799-0.956c0.89,0,1.44,0.462,1.44,1.212
			c0,0.561-0.449,1.155-1.203,1.582c-0.495,0.279-0.867,0.437-1.619,0.66c0.021,0.202,0.032,0.292,0.065,0.403
			c0.112,0.337,0.383,0.561,0.721,0.596c0.474,0.044,0.889-0.18,1.529-0.817L190.968,48.406z M188.393,46.895
			c1.124-0.372,1.755-0.876,1.799-1.425c0.021-0.304-0.168-0.505-0.482-0.505c-0.373,0-0.744,0.303-1.002,0.819
			c-0.113,0.224-0.192,0.471-0.249,0.728c0,0-0.021,0.135-0.044,0.259L188.393,46.895z"/>
		<path fill="#1F1E21" d="M195.288,49.305h-1.172l0.754-5.035h1.182L195.288,49.305z M196.432,42.61
			c0,0.461-0.335,0.809-0.785,0.809c-0.418,0-0.652-0.237-0.652-0.65c0-0.448,0.348-0.786,0.809-0.786
			C196.162,41.982,196.432,42.24,196.432,42.61z"/>
		<path fill="#1F1E21" d="M199.513,49.305l0.485-3.186c0.022-0.157,0.034-0.291,0.034-0.447c0-0.325-0.146-0.471-0.449-0.471
			c-0.43,0-0.891,0.471-1.317,1.334l-0.418,2.77h-1.168l0.461-3.074c0.022-0.179,0.056-0.391,0.078-0.639
			c0.046-0.448,0.034-0.807-0.056-1.031c0-0.01-0.034-0.066-0.078-0.143l1-0.261c0.192,0.168,0.283,0.45,0.283,0.841
			c0,0.058-0.012,0.224-0.022,0.357c0.292-0.414,0.438-0.593,0.684-0.782c0.351-0.28,0.731-0.438,1.092-0.438
			c0.765,0,1.17,0.438,1.136,1.232c-0.011,0.169-0.021,0.35-0.056,0.516l-0.506,3.421H199.513z"/>
		<path fill="#1F1E21" d="M205.418,45.133h-1.125l-0.528,3.476c-0.123,0.853-0.168,1.077-0.236,1.367
			c-0.393,1.402-1.248,2.163-2.374,2.085c-0.066,0-0.145-0.01-0.233-0.021v-0.808c0.898,0.021,1.359-0.562,1.573-1.973l0.619-4.126
			h-0.923l0.124-0.863h0.934l0.057-0.324c0.146-0.965,0.2-1.154,0.438-1.526c0.338-0.559,0.945-0.905,1.653-0.95
			c0.248-0.013,0.427,0,0.755,0.045l-0.158,0.84c-0.066-0.011-0.134-0.011-0.146-0.011c-0.384,0-0.607,0.065-0.844,0.246
			c-0.293,0.235-0.404,0.515-0.52,1.278l-0.065,0.402h1.135L205.418,45.133z"/>
		<path fill="#1F1E21" d="M210.019,46.266c0,0.74-0.281,1.592-0.73,2.208c-0.473,0.649-1.113,0.987-1.878,0.987
			c-1.16,0-1.835-0.774-1.835-2.108c0-0.773,0.271-1.625,0.709-2.229c0.473-0.662,1.146-1.013,1.913-1.013
			C209.355,44.111,210.019,44.896,210.019,46.266z M207.127,45.784c-0.213,0.446-0.349,1.03-0.349,1.547
			c0,0.773,0.259,1.175,0.743,1.175c0.384,0,0.687-0.222,0.921-0.682c0.237-0.448,0.36-0.988,0.36-1.503
			c0-0.839-0.257-1.254-0.775-1.254C207.656,45.067,207.341,45.323,207.127,45.784z"/>
		<path fill="#1F1E21" d="M214.237,45.368c-0.203-0.032-0.305-0.032-0.439-0.021c-0.562,0.066-1.058,0.593-1.485,1.603l-0.358,2.355
			h-1.172l0.463-3.074c0.021-0.179,0.055-0.391,0.078-0.639c0.046-0.448,0.033-0.807-0.057-1.031c0-0.01-0.032-0.066-0.077-0.143
			l1-0.261c0.18,0.168,0.279,0.45,0.279,0.841c0,0.168,0,0.235-0.021,0.338l-0.044,0.392c0.292-0.539,0.382-0.694,0.572-0.931
			c0.326-0.415,0.643-0.616,1.059-0.65c0.135-0.011,0.247,0.011,0.439,0.068L214.237,45.368z"/>
		<path fill="#1F1E21" d="M220.287,49.305l0.485-3.219c0.021-0.146,0.032-0.302,0.032-0.414c0-0.336-0.147-0.494-0.429-0.483
			c-0.46,0.022-0.863,0.45-1.271,1.313l-0.427,2.804h-1.17l0.461-3.104c0.033-0.17,0.045-0.327,0.056-0.461
			c0.023-0.393-0.145-0.585-0.46-0.538c-0.452,0.066-0.787,0.426-1.238,1.3l-0.427,2.804h-1.17l0.461-3.074
			c0.023-0.179,0.057-0.391,0.08-0.639c0.044-0.448,0.034-0.807-0.057-1.031c0-0.01-0.035-0.066-0.078-0.143l1-0.261
			c0.19,0.168,0.28,0.45,0.28,0.841c0,0.069-0.011,0.27-0.032,0.438c0.584-0.898,1.057-1.256,1.72-1.301
			c0.607-0.045,1.014,0.368,1.014,0.997c0,0.089,0,0.18-0.013,0.28c0.596-0.932,1.091-1.277,1.79-1.277
			c0.674,0,1.1,0.392,1.134,1.019c0.011,0.182,0,0.36-0.034,0.538l-0.538,3.612H220.287z"/>
		<path fill="#1F1E21" d="M227.147,47.084c-0.045,0.292-0.091,0.663-0.102,0.885c-0.034,0.483,0.102,0.65,0.563,0.64l-0.237,0.773
			c-0.135,0.034-0.179,0.034-0.348,0.034c-0.81,0-1.113-0.326-1.102-1.188c-0.552,0.884-1.035,1.22-1.743,1.22
			c-0.867,0-1.384-0.794-1.295-1.971c0.146-1.896,1.328-3.262,2.87-3.341c0.561-0.034,1.09,0.045,1.798,0.257L227.147,47.084z
			 M226.269,45.133c-0.324-0.065-0.482-0.077-0.696-0.055c-0.449,0.055-0.776,0.29-1.047,0.784
			c-0.236,0.414-0.403,0.952-0.438,1.469c-0.058,0.74,0.146,1.121,0.596,1.121c0.404,0,0.798-0.395,1.271-1.278L226.269,45.133z"/>
		<path fill="#1F1E21" d="M231.758,45.614c-0.315-0.381-0.494-0.49-0.8-0.471c-0.359,0.022-0.629,0.236-0.876,0.674
			c-0.203,0.37-0.359,0.975-0.359,1.412c0,0.492,0.056,0.752,0.212,0.953c0.124,0.178,0.315,0.28,0.508,0.28
			c0.415,0,0.718-0.168,1.19-0.65l0.305,0.773c-0.483,0.55-1.024,0.842-1.677,0.875c-1.079,0.056-1.775-0.763-1.775-2.098
			c0-0.806,0.303-1.702,0.787-2.33c0.46-0.585,1.013-0.887,1.664-0.922c0.63-0.032,1.113,0.214,1.495,0.742L231.758,45.614z"/>
		<path fill="#1F1E21" d="M233.938,49.305h-1.169l0.755-5.035h1.182L233.938,49.305z M235.085,42.61
			c0,0.461-0.336,0.809-0.786,0.809c-0.417,0-0.653-0.237-0.653-0.65c0-0.448,0.349-0.786,0.811-0.786
			C234.817,41.982,235.085,42.24,235.085,42.61z"/>
		<path fill="#1F1E21" d="M239.877,46.266c0,0.74-0.281,1.592-0.731,2.208c-0.471,0.649-1.112,0.987-1.878,0.987
			c-1.159,0-1.834-0.774-1.834-2.108c0-0.773,0.271-1.625,0.71-2.229c0.472-0.662,1.146-1.013,1.912-1.013
			C239.213,44.111,239.877,44.896,239.877,46.266z M236.986,45.784c-0.212,0.446-0.348,1.03-0.348,1.547
			c0,0.773,0.258,1.175,0.743,1.175c0.382,0,0.685-0.222,0.922-0.682c0.235-0.448,0.36-0.988,0.36-1.503
			c0-0.839-0.26-1.254-0.776-1.254C237.516,45.067,237.201,45.323,236.986,45.784z M240.213,42.04l-2.056,1.558l-0.822-0.201
			l1.777-1.592L240.213,42.04z"/>
		<path fill="#1F1E21" d="M243.476,49.305l0.482-3.186c0.023-0.157,0.036-0.291,0.036-0.447c0-0.325-0.147-0.471-0.452-0.471
			c-0.427,0-0.886,0.471-1.314,1.334l-0.417,2.77h-1.169l0.461-3.074c0.023-0.179,0.056-0.391,0.08-0.639
			c0.044-0.448,0.032-0.807-0.057-1.031c0-0.01-0.035-0.066-0.079-0.143l1.001-0.261c0.19,0.168,0.28,0.45,0.28,0.841
			c0,0.058-0.011,0.224-0.022,0.357c0.293-0.414,0.438-0.593,0.688-0.782c0.348-0.28,0.729-0.438,1.09-0.438
			c0.764,0,1.169,0.438,1.135,1.232c-0.01,0.169-0.021,0.35-0.056,0.516l-0.505,3.421H243.476z"/>
		<path fill="#1F1E21" d="M250.394,45.302c0.247-0.416,0.392-0.595,0.629-0.785c0.315-0.247,0.674-0.393,1.002-0.393
			c0.932,0,1.448,0.695,1.381,1.872c-0.099,1.918-1.281,3.451-2.642,3.451c-0.315,0-0.518-0.031-0.89-0.143l-0.403,2.746h-1.182
			l0.506-3.319c-0.405-0.437-0.472-0.515-0.653-0.817l0.204-1.1c0.27,0.459,0.347,0.572,0.595,0.897l0.607-4.059l1.114-0.169
			L250.394,45.302z M250.022,48.36c0.179,0.103,0.313,0.146,0.506,0.16c0.507,0.033,0.922-0.236,1.237-0.786
			c0.281-0.505,0.46-1.267,0.426-1.861c-0.022-0.471-0.258-0.74-0.618-0.719c-0.449,0.023-0.83,0.416-1.27,1.324L250.022,48.36z"/>
		<path fill="#1F1E21" d="M258.658,46.266c0,0.74-0.28,1.592-0.729,2.208c-0.473,0.649-1.114,0.987-1.878,0.987
			c-1.161,0-1.835-0.774-1.835-2.108c0-0.773,0.271-1.625,0.709-2.229c0.473-0.662,1.147-1.013,1.913-1.013
			C257.996,44.111,258.658,44.896,258.658,46.266z M255.768,45.784c-0.214,0.446-0.348,1.03-0.348,1.547
			c0,0.773,0.259,1.175,0.74,1.175c0.384,0,0.687-0.222,0.924-0.682c0.236-0.448,0.359-0.988,0.359-1.503
			c0-0.839-0.259-1.254-0.775-1.254C256.296,45.067,255.982,45.323,255.768,45.784z"/>
		<path fill="#1F1E21" d="M260.583,41.514h1.168l-0.539,3.597c0.518-0.718,1.002-1.009,1.631-0.975
			c0.866,0.045,1.327,0.74,1.259,1.93c-0.112,2.017-1.282,3.372-2.913,3.372c-0.664,0-1.013-0.078-1.743-0.37L260.583,41.514z
			 M260.716,48.44c0.293,0.065,0.45,0.089,0.676,0.056c0.596-0.077,0.967-0.38,1.226-1.02c0.156-0.382,0.258-0.863,0.28-1.323
			c0.035-0.671-0.169-1.021-0.596-1.021c-0.416,0-0.91,0.506-1.282,1.301L260.716,48.44z"/>
		<path fill="#1F1E21" d="M265.98,49.305h-1.17l1.17-7.791h1.168L265.98,49.305z"/>
		<path fill="#1F1E21" d="M271.692,47.084c-0.044,0.292-0.088,0.663-0.1,0.885c-0.034,0.483,0.1,0.65,0.562,0.64l-0.235,0.773
			c-0.135,0.034-0.18,0.034-0.349,0.034c-0.81,0-1.114-0.326-1.103-1.188c-0.552,0.884-1.035,1.22-1.743,1.22
			c-0.866,0-1.383-0.794-1.294-1.971c0.146-1.896,1.328-3.262,2.869-3.341c0.563-0.034,1.09,0.045,1.799,0.257L271.692,47.084z
			 M270.816,45.133c-0.325-0.065-0.483-0.077-0.697-0.055c-0.45,0.055-0.776,0.29-1.046,0.784c-0.235,0.414-0.405,0.952-0.439,1.469
			c-0.055,0.74,0.146,1.121,0.598,1.121c0.403,0,0.797-0.395,1.271-1.278L270.816,45.133z"/>
		<path fill="#1F1E21" d="M276.304,45.614c-0.315-0.381-0.494-0.49-0.799-0.471c-0.36,0.022-0.629,0.236-0.878,0.674
			c-0.202,0.37-0.359,0.975-0.359,1.412c0,0.492,0.057,0.752,0.213,0.953c0.125,0.178,0.315,0.28,0.507,0.28
			c0.417,0,0.72-0.168,1.193-0.65l0.303,0.773c-0.483,0.55-1.023,0.842-1.675,0.875c-1.081,0.056-1.778-0.763-1.778-2.098
			c0-0.806,0.304-1.702,0.788-2.33c0.461-0.585,1.013-0.887,1.665-0.922c0.628-0.032,1.113,0.214,1.494,0.742L276.304,45.614z"/>
		<path fill="#1F1E21" d="M278.485,49.305h-1.169l0.753-5.035h1.182L278.485,49.305z M279.632,42.61
			c0,0.461-0.337,0.809-0.786,0.809c-0.417,0-0.653-0.237-0.653-0.65c0-0.448,0.349-0.786,0.81-0.786
			C279.363,41.982,279.632,42.24,279.632,42.61z"/>
		<path fill="#1F1E21" d="M284.424,46.266c0,0.74-0.28,1.592-0.731,2.208c-0.473,0.649-1.114,0.987-1.879,0.987
			c-1.157,0-1.833-0.774-1.833-2.108c0-0.773,0.271-1.625,0.708-2.229c0.474-0.662,1.147-1.013,1.912-1.013
			C283.76,44.111,284.424,44.896,284.424,46.266z M281.532,45.784c-0.212,0.446-0.345,1.03-0.345,1.547
			c0,0.773,0.257,1.175,0.74,1.175c0.382,0,0.686-0.222,0.922-0.682c0.236-0.448,0.36-0.988,0.36-1.503
			c0-0.839-0.259-1.254-0.776-1.254C282.061,45.067,281.747,45.323,281.532,45.784z"/>
		<path fill="#1F1E21" d="M288.023,49.305l0.483-3.186c0.023-0.157,0.035-0.291,0.035-0.447c0-0.325-0.148-0.471-0.451-0.471
			c-0.429,0-0.889,0.471-1.315,1.334l-0.418,2.77h-1.169l0.461-3.074c0.022-0.179,0.057-0.391,0.079-0.639
			c0.045-0.448,0.035-0.807-0.057-1.031c0-0.01-0.033-0.066-0.078-0.143l1.001-0.261c0.192,0.168,0.281,0.45,0.281,0.841
			c0,0.058-0.011,0.224-0.022,0.357c0.292-0.414,0.438-0.593,0.686-0.782c0.35-0.28,0.731-0.438,1.09-0.438
			c0.766,0,1.172,0.438,1.138,1.232c-0.011,0.169-0.022,0.35-0.058,0.516l-0.506,3.421H288.023z"/>
		<path fill="#1F1E21" d="M294.895,47.084c-0.046,0.292-0.091,0.663-0.102,0.885c-0.034,0.483,0.102,0.65,0.563,0.64l-0.236,0.773
			c-0.137,0.034-0.181,0.034-0.349,0.034c-0.811,0-1.115-0.326-1.104-1.188c-0.549,0.884-1.034,1.22-1.743,1.22
			c-0.865,0-1.383-0.794-1.292-1.971c0.146-1.896,1.326-3.262,2.867-3.341c0.563-0.034,1.09,0.045,1.799,0.257L294.895,47.084z
			 M294.017,45.133c-0.325-0.065-0.484-0.077-0.698-0.055c-0.45,0.055-0.776,0.29-1.046,0.784c-0.234,0.414-0.405,0.952-0.437,1.469
			c-0.058,0.74,0.145,1.121,0.595,1.121c0.404,0,0.798-0.395,1.271-1.278L294.017,45.133z"/>
		<path fill="#1F1E21" d="M297.39,49.305h-1.17l1.17-7.791h1.17L297.39,49.305z"/>
	</g>
</g>
</svg>
