<?xml version="1.0" encoding="utf-8"?>
<!-- Generator: Adobe Illustrator 16.0.0, SVG Export Plug-In . SVG Version: 6.00 Build 0)  -->
<!DOCTYPE svg PUBLIC "-//W3C//DTD SVG 1.1//EN" "http://www.w3.org/Graphics/SVG/1.1/DTD/svg11.dtd">
<svg version="1.1" xmlns="http://www.w3.org/2000/svg" xmlns:xlink="http://www.w3.org/1999/xlink" x="0px" y="0px" width="1920px"
	 height="1080px" viewBox="0 0 1920 1080" enable-background="new 0 0 1920 1080" xml:space="preserve">
<g id="Capa_1">
	<g id="Capa_3_1_">
		<polyline fill="#86CDE2" points="1,1080 1,1 1920.253,1 1920.253,1080 		"/>
	</g>
	<g id="Capa_13_2_">
		<g>
			<rect y="11" fill="none" width="1920.184" height="71.664"/>
			<path opacity="0.6" fill="#FFFFFF" d="M1920.184,20.11L0,11v15.746c0,0,1390.916,16.39,1385.882,19.282
				C1380.842,48.921,0,42.333,0,42.333v7.874l1920,32.458V33.013c0,0-1561.479-8.033-1561.479-10.765s1561.662,1.679,1561.662,1.679
				V20.11z"/>
		</g>
		<path fill="#D3E8F7" d="M1920.496,804.094V378.275c-6.733-6.237-15.624-10.022-25.368-10.022c-5.257,0-10.244,1.092-14.806,3.076
			c1.792-4.55,2.787-9.505,2.787-14.714c0-21.641-17.008-39.182-37.993-39.182c-2.456,0-4.834,0.243-7.149,0.69
			c-3.936,0.77-7.633,2.164-11.022,4.072c2.349-6.78,3.639-14.076,3.639-21.692c0-35.543-27.95-64.37-62.415-64.37
			c-23.923,0-44.691,13.885-55.169,34.26c-12.655-14.81-31.183-24.192-51.842-24.192c-23.986,0-45.101,12.62-57.484,31.763
			c-5.54-14.574-19.276-24.9-35.382-24.9c-20.987,0-37.996,17.54-37.996,39.182c0,3.063,0.343,6.044,0.998,8.898
			c-7.775-3.575-16.372-5.579-25.416-5.579c-34.465,0-62.415,28.828-62.415,64.37c0,10.772,2.582,20.921,7.104,29.833
			c-2.334-0.238-4.711-0.365-7.104-0.365c-29.987,0-55.511,19.718-65.039,47.263c-1.325-0.146-2.661-0.21-4.016-0.21
			c-7.491,0-14.47,2.229-20.346,6.092c-9.653-27.335-35.067-46.844-64.901-46.844c-4.966,0-9.799,0.558-14.46,1.588
			c6.547-6.37,10.64-15.396,10.64-25.407c0-19.29-15.161-34.931-33.867-34.931c-14.196,0-26.348,9.015-31.379,21.796
			c-12.501-44.685-52.434-77.371-99.787-77.371c-57.039,0-103.325,47.433-103.832,106.137
			c-16.833-12.125-37.297-19.262-59.393-19.262c-3.985,0-7.921,0.237-11.79,0.69c-1.448-17.911-15.996-31.991-33.74-31.991
			c-5.542,0-10.772,1.383-15.396,3.82c-16.365-23.349-42.976-38.557-73.054-38.557c-30.951,0-58.243,16.089-74.484,40.588
			c-11.077-46.865-52.029-81.66-100.881-81.66c-46.132,0-85.22,31.032-98.762,73.949c-0.134,0-0.267-0.009-0.4-0.009
			c-21.596,0-39.406,16.646-42.064,38.168c-14.125,5.949-25.798,16.825-32.947,30.59c-11.581-9.057-26.016-14.44-41.669-14.44
			c-2.398,0-4.776,0.127-7.104,0.365c4.522-8.912,7.104-19.061,7.104-29.833c0-34.218-25.911-62.196-58.593-64.238
			c1.846-4.907,2.87-10.235,2.87-15.814c0-23.756-18.36-43.073-41.244-43.717c0.613-4.021,0.937-8.145,0.937-12.35
			c0-43.803-34.435-79.314-76.907-79.314c-25.419,0-47.936,12.734-61.932,32.34c-7.263-6-16.47-9.594-26.498-9.594
			c-17.357,0-32.274,10.757-38.837,26.162c-23.736-20.094-54.104-32.156-87.206-32.156c-11.876,0-23.399,1.557-34.393,4.475v638.368
			H1920.496z"/>
		<g>
			<path fill="#D3E8F7" d="M1920,675.738V144.575c-24.271-5.134-50.115-5.74-76.109-0.747
				c-97.04,18.608-159.476,106.693-139.432,196.804c1.959,8.914,4.763,17.545,8.141,25.848c-0.768,0.105-1.537,0.215-2.303,0.357
				c-55.985,10.727-92.004,61.561-80.448,113.535c4.378,19.715,15.011,36.789,29.568,49.764c-2.688,0.322-5.379,0.68-8.064,1.209
				c-23.153,4.424-42.506,16.471-55.72,32.693c-12.672-16.721-35.214-25.771-58.1-21.393c-22.847,4.389-39.668,20.93-44.195,40.852
				c-23.811-24.488-60.52-36.928-97.807-29.762c-43.815,8.377-75.381,41.314-81.524,80.096c-9.752-3.42-20.658-4.414-31.64-2.314
				c-1.997,0.389-3.957,0.857-5.834,1.428c-1.691-2.605-3.533-5.135-5.491-7.523c-23.276-28.945-63.249-44.453-103.876-36.645
				c-3.495,0.676-6.947,1.498-10.328,2.494c4.03-13.045,4.838-27.197,1.69-41.426c-10.447-46.977-59.941-77.172-110.516-67.479
				c-13.289,2.533-25.347,7.598-35.675,14.512c0.116-3.961-0.269-7.986-1.152-12.049c-0.996-4.422-2.532-8.555-4.569-12.439
				c-7.526-14.402-21.734-24.777-38.246-28.344c-2.728-0.605-5.527-1.029-8.375-1.209c-2.836,0.18-5.64,0.604-8.365,1.209
				c-16.516,3.566-30.72,13.941-38.25,28.344c-2.034,3.885-3.569,8.018-4.565,12.439c-0.888,4.063-1.269,8.088-1.151,12.049
				c-10.329-6.914-22.391-11.979-35.681-14.512c-50.568-9.693-100.068,20.502-110.512,67.479
				c-3.15,14.229-2.344,28.381,1.688,41.426c-3.377-0.996-6.834-1.818-10.328-2.494c-40.627-7.809-80.601,7.699-103.871,36.645
				c-1.962,2.389-3.8,4.918-5.49,7.523c-1.884-0.57-3.843-1.039-5.84-1.428c-10.981-2.1-21.887-1.105-31.64,2.314
				c-6.148-38.781-37.713-71.719-81.525-80.096c-37.282-7.166-73.996,5.273-97.806,29.762
				c-4.524-19.922-21.349-36.463-44.196-40.852c-22.885-4.379-45.431,4.672-58.101,21.393
				c-13.209-16.223-32.565-28.27-55.718-32.693c-2.688-0.529-5.374-0.887-8.066-1.209c14.561-12.975,25.196-30.049,29.574-49.764
				c11.555-51.975-24.463-102.809-80.449-113.535c-0.765-0.143-1.541-0.252-2.307-0.357c3.377-8.303,6.186-16.934,8.141-25.848
				c20.048-90.111-42.393-178.196-139.428-196.804c-25.994-4.994-51.842-4.387-76.109,0.747v531.163H1920z"/>
			<path fill="#D3E8F7" d="M1813.891,143.829c-97.04,18.608-159.476,106.693-139.432,196.804c1.959,8.914,4.763,17.545,8.141,25.848
				c-0.768,0.105-1.537,0.215-2.303,0.357c-55.985,10.727-92.004,61.561-80.448,113.535c4.378,19.715,15.011,36.789,29.568,49.764
				c-2.688,0.322-5.379,0.68-8.064,1.209c-14.791,2.826-28.02,8.773-39.099,16.923v127.47H1890V144.575
				C1865.729,139.441,1839.885,138.835,1813.891,143.829z"/>
		</g>
		<path fill="#EBF4FB" d="M1920,680.094V178.203c-24.268-4.851-50.11-5.424-76.102-0.705
			c-97.031,17.582-159.461,100.813-139.419,185.958c1.959,8.422,4.763,16.577,8.14,24.422c-0.767,0.101-1.537,0.204-2.302,0.338
			c-55.98,10.137-91.996,58.168-80.44,107.279c4.376,18.628,15.009,34.762,29.565,47.021c-2.688,0.305-5.379,0.644-8.064,1.144
			c-23.151,4.179-42.502,15.563-55.714,30.892c-12.672-15.8-35.211-24.352-58.095-20.214c-22.845,4.146-39.664,19.776-44.19,38.601
			c-23.809-23.139-60.514-34.893-97.797-28.122c-43.812,7.916-75.374,39.037-81.518,75.682c-9.751-3.232-20.656-4.172-31.637-2.187
			c-1.997,0.367-3.956,0.81-5.834,1.348c-1.69-2.461-3.532-4.851-5.49-7.107c-23.273-27.351-63.242-42.004-103.865-34.625
			c-3.495,0.639-6.947,1.414-10.328,2.356c4.03-12.326,4.838-25.698,1.691-39.143c-10.447-44.389-59.936-72.92-110.506-63.761
			c-13.288,2.395-25.344,7.18-35.672,13.712c0.117-3.741-0.269-7.545-1.152-11.384c-0.995-4.179-2.531-8.083-4.568-11.754
			c-7.525-13.61-21.732-23.412-38.242-26.783c-2.727-0.571-5.527-0.972-8.375-1.143c-2.836,0.171-5.64,0.571-8.363,1.143
			c-16.515,3.371-30.717,13.173-38.247,26.783c-2.034,3.671-3.569,7.575-4.564,11.754c-0.888,3.839-1.269,7.643-1.151,11.384
			c-10.328-6.532-22.389-11.317-35.677-13.712c-50.565-9.159-100.06,19.372-110.501,63.761c-3.151,13.444-2.344,26.816,1.687,39.143
			c-3.376-0.942-6.833-1.718-10.327-2.356c-40.624-7.379-80.593,7.274-103.861,34.625c-1.962,2.257-3.799,4.646-5.49,7.107
			c-1.883-0.538-3.842-0.98-5.839-1.348c-10.98-1.985-21.885-1.046-31.637,2.187c-6.147-36.645-37.709-67.766-81.517-75.682
			c-37.279-6.771-73.989,4.983-97.796,28.122c-4.523-18.824-21.347-34.454-44.192-38.601c-22.883-4.138-45.427,4.414-58.095,20.214
			c-13.208-15.329-32.562-26.713-55.713-30.892c-2.687-0.5-5.374-0.839-8.065-1.144c14.56-12.259,25.193-28.393,29.571-47.021
			c11.554-49.111-24.46-97.143-80.442-107.279c-0.765-0.134-1.54-0.237-2.306-0.338c3.377-7.845,6.185-16,8.14-24.422
			c20.046-85.146-42.388-168.376-139.415-185.958c-25.992-4.719-51.838-4.146-76.102,0.705v501.891H1920z"/>
	</g>
	<g id="montañas">
		<polygon fill="#44786B" points="1590.741,851.993 1697.26,848.325 1200.884,669.058 962.862,602.331 859.201,540.2 
			709.922,471.176 490.657,567.814 333.263,627.635 1,740.188 2.279,851.993 118.208,851.993 		"/>
		<polygon fill="#4C877B" points="996.863,801.993 748.203,712.19 510.182,645.463 406.537,583.337 257.25,514.313 37.984,610.946 
			0,625.383 0,801.993 		"/>
		<polygon fill="#4C877B" points="1920,798.993 1920,632.155 1843.135,605.858 1623.868,509.215 1474.591,578.248 1370.938,640.374 
			1132.921,707.098 878.474,798.993 		"/>
		<rect y="740.285" fill="#4C877B" width="1920.253" height="339.715"/>
	</g>
	<g id="Capa_12_1_">
		<path fill="#83B36D" d="M1709.494,817.532v61.471H1V741.757c39.391-2.519,92.665-5.612,156.093-8.599
			c128.327-5.996,298.133-11.444,478.465-10.36c164.984,1.032,338.751,7.569,497.577,24.196
			C1490.318,784.406,1646.447,806.976,1709.494,817.532"/>
	</g>
	<g id="Capa_11_1_">
		<linearGradient id="SVGID_1_" gradientUnits="userSpaceOnUse" x1="2" y1="855.8848" x2="1919.2188" y2="855.8848">
			<stop  offset="0.2267" style="stop-color:#85B470"/>
			<stop  offset="1" style="stop-color:#6EB3B7"/>
		</linearGradient>
		<path fill="url(#SVGID_1_)" d="M1919.219,900.886v31.834H2V802.248c48.051-3.059,113.035-6.817,190.405-10.444
			c156.537-7.283,363.669-13.902,583.642-12.585c148.953,9.327,299.348,21.324,440.119,35.985
			C1651.862,860.65,1842.313,888.066,1919.219,900.886"/>
	</g>
	<g id="Capa_9_2_">
		<path fill="#83B36D" d="M1920.496,750.967V1080H1V793.429c0,0,5.501,0.824,15.927,2.311c63.592,9.092,310.326,42.924,610.32,65.4
			c292.477,21.918,635.575,33.07,908.97,0c0.406-0.052,0.843-0.098,1.254-0.147c57.594-6.999,112.096-15.958,162.344-27.214
			c17.16-3.828,33.805-7.938,49.886-12.311c1.666-0.445,3.283-0.892,4.918-1.337C1819.955,802.01,1876.271,779.238,1920.496,750.967
			"/>
	</g>
	<g id="Capa_4_1_">
		<circle fill="#BCCF43" cx="631.868" cy="636.905" r="58.942"/>
		<rect x="632.905" y="612.178" fill="#68573C" width="4.803" height="165.678"/>
		
			<rect x="641.341" y="644.912" transform="matrix(-0.8411 -0.5409 0.5409 -0.8411 827.8875 1564.2761)" fill="#68573C" width="4.802" height="31.213"/>
		
			<rect x="619.655" y="626.746" transform="matrix(0.5411 -0.841 0.841 0.5411 -254.7321 817.8906)" fill="#68573C" width="4.801" height="31.213"/>
	</g>
	<g id="Capa_6_2_">
	</g>
	<g id="Capa_12">
		<rect x="1649.407" y="721.308" fill="#FFE6AD" width="204.219" height="358.692"/>
		<polygon fill="#BB8644" points="1649.407,1080 1547.297,1080 1547.297,716.072 1602.28,612.653 1649.407,716.072 		"/>
		<rect x="1696.095" y="799.854" fill="#F2D697" width="36.654" height="83.781"/>
		<rect x="1688.678" y="799.854" fill="#106061" width="36.656" height="83.781"/>
		<rect x="1692.386" y="930.867" fill="#F2D697" width="36.655" height="83.781"/>
		<rect x="1684.971" y="930.867" fill="#106061" width="36.655" height="83.781"/>
		<rect x="1780.141" y="930.867" fill="#F2D697" width="36.654" height="83.781"/>
		<rect x="1772.725" y="930.867" fill="#106061" width="36.655" height="83.781"/>
		<rect x="1783.848" y="798.619" fill="#F2D697" width="36.656" height="83.781"/>
		<rect x="1776.432" y="798.619" fill="#106061" width="36.655" height="83.781"/>
		<polygon fill="#994C08" points="1602.28,612.653 1798.645,612.653 1853.626,721.308 1649.407,721.308 		"/>
		<polygon fill="#693001" points="1755.011,710.836 1716.098,710.836 1691.082,642.627 1755.011,637.526 		"/>
		<rect x="1714.861" y="637.526" fill="#FFE18D" width="54.98" height="73.31"/>
		<rect x="1731.766" y="647.26" fill="#C0A26E" width="29.045" height="59.636"/>
		<rect x="1734.131" y="651.056" fill="#2A5648" width="23.564" height="52.365"/>
		<polygon fill="#0B3E3F" points="1739.696,704.423 1735.165,706.896 1735.165,650.04 1739.696,653.749 		"/>
		<polygon fill="#0B3E3F" points="1752.468,704.423 1756.998,706.896 1756.998,650.04 1752.468,653.749 		"/>
		<rect x="1735.165" y="650.04" fill="#0B3E3F" width="22.247" height="3.709"/>
	</g>
	<g id="Capa_10">
		<rect x="1286.844" y="655.21" fill="#BB8641" width="50.582" height="129.493"/>
		<rect x="1337.426" y="655.21" fill="#FAE7A9" width="44.515" height="129.493"/>
		<polygon fill="#6A3200" points="1285.831,654.983 1336.414,654.983 1336.414,528.751 		"/>
		<polygon fill="#984B09" points="1383.963,654.983 1336.414,654.983 1336.414,528.751 		"/>
		<polygon fill="#6B3006" points="1262.563,804.936 1381.939,804.936 1430.836,737.803 1346.699,736.52 1337.426,746.259 
			1310.111,746.259 		"/>
		<rect x="1262.563" y="804.936" fill="#B78642" width="119.377" height="135.563"/>
		<polygon fill="#FDE6AE" points="1483.105,946.567 1381.939,946.567 1381.939,804.936 1430.836,737.803 1483.105,804.936 		"/>
		<rect x="1340.744" y="835.286" fill="#A48855" width="12.139" height="62.722"/>
		<rect x="1345.52" y="835.286" fill="#0D403B" width="12.141" height="62.722"/>
		<rect x="1311.134" y="835.286" fill="#A48855" width="12.141" height="62.722"/>
		<rect x="1315.91" y="835.286" fill="#0D403B" width="12.14" height="62.722"/>
		<rect x="1280.569" y="835.286" fill="#A48855" width="12.14" height="62.722"/>
		<rect x="1285.346" y="835.286" fill="#0D403B" width="12.14" height="62.722"/>
		<rect x="1422.806" y="830.458" fill="#1B7F85" width="28.655" height="67.815"/>
		<path fill="#1B7F85" d="M1419.983,808.012c0-14.328,7.755-25.416,17.322-25.416c9.566,0,17.322,11.088,17.322,25.416H1419.983z"/>
	</g>
	<g id="Capa_14">
		<g>
			<path fill="#7A9D4A" d="M1625.613,1005.125"/>
			<path fill="#7A9D4A" d="M1587.146,982.366"/>
			<path fill="#B7CD82" d="M1614.387,1008.822"/>
			<path fill="#B7CD82" d="M1585.346,999.719"/>
			<path fill="#A8C46C" d="M1597.576,1003.553"/>
			<path fill="#A8C46C" d="M1551.665,1013.227"/>
			<path fill="#A8C46C" d="M1651.825,999.805"/>
			<path fill="#A8C46C" d="M1573.244,975.168"/>
			<path fill="#A8C46C" d="M1573.244,975.168"/>
			<path fill="#7A9D4A" d="M1858.117,1083c-9.107-33.507-16.889-65.229-20.502-87.409c0,0,11.855,37.005,28.535,87.409H1858.117z"/>
			<path fill="#7A9D4A" d="M1837.744,1083c-6.957-26.602-12.684-51.065-15.634-69.171c0,0,9.075,28.327,22.517,69.171H1837.744z"/>
			<path fill="#7A9D4A" d="M1851.986,1083c-6.957-26.602-12.342-49.748-15.291-67.854c0,0,9.225,27.01,22.668,67.854H1851.986z"/>
			<path fill="#688945" d="M1920,1081.28c-20.6-31.435-42.502-56.062-65.469-69.962c13.225,25.133,25.444,48.89,36.889,71.682H1920
				V1081.28z"/>
			<path fill="#7A9D4A" d="M1920,1013.502c-14.196-17.456-28.929-31.35-44.123-40.548c16.049,30.508,30.634,59.004,44.123,86.176
				V1013.502z"/>
			<path fill="#B7CD82" d="M1868.264,1083c-12.623-50.579-19.482-83.73-19.482-83.73c10.71,29.676,20.717,57.439,30.249,83.73
				H1868.264z"/>
			<path fill="#B7CD82" d="M1899.424,1083c-14.072-55.643-21.756-92.786-21.756-92.786c11.945,33.104,23.021,63.829,33.533,92.786
				H1899.424z"/>
			<path fill="#B7CD82" d="M1920,1021.625c-1.065-1.321-2.133-2.643-3.211-3.967c1.078,1.749,2.146,3.492,3.211,5.234V1021.625z"/>
			<path fill="#A8C46C" d="M1859.363,1083c-0.717-30.113,1.077-59.994,6.14-88.973c5.716,27.652,14.427,56.918,22.085,88.973
				H1859.363z"/>
			<path fill="#A8C46C" d="M1920,1039.976c-2.97-11.912-5.916-24.013-8.83-36.325c2.514,25.058,5.484,49.074,8.83,72.16V1039.976z"
				/>
			<path fill="#699E4E" d="M1881.045,1083c-4.574-18.564-8.262-35.373-10.437-48.716c0,0,6.146,19.183,15.808,48.716H1881.045z"/>
			<path fill="#A8C46C" d="M1828.576,1083c-10.022-45.797-17.322-82.92-17.035-92.701c0,0,10.689,39.595,25.521,92.701H1828.576z"/>
			<path fill="#A8C46C" d="M1920,1075.529c-17.257-61.448-30.295-109.735-30.295-109.735c-0.337,11.478,9.773,60.596,22.467,117.206
				H1920V1075.529z"/>
			<path fill="#BCCC59" d="M1887.756,1083c-0.908-5.858-1.545-11.054-1.861-15.443c0,0,1.779,5.677,4.863,15.443H1887.756z"/>
			<path fill="#8CB14C" d="M1920,1031.065c-3.447,15.324-5.006,33.05-5.229,51.935H1920V1031.065z"/>
			<path fill="#8CB14C" d="M1887.783,1083c-7.883-22.442-13.082-37.173-13.082-37.173c5.636,9.207,12.283,22.017,19.525,37.173
				H1887.783z"/>
			<path fill="#A8C46C" d="M1843.421,1083c-2.44-18.136-4.653-36.832-6.591-56.15c4.635,19.581,11.328,38.025,17.54,56.15H1843.421z
				"/>
			<path fill="#5F944B" d="M1906.087,1083c-6.644-25.576-12.098-49.032-14.952-66.536c0,0,8.689,27.12,21.651,66.536H1906.087z"/>
			<polygon fill="#5F944B" points="1828.576,1083 1811.533,1047.159 1816.392,1082.997 			"/>
			<polygon fill="#A8C46C" points="1819.355,1082.997 1821.334,1056.368 1826.276,1082.997 			"/>
		</g>
	</g>
	<g id="Capa_13">
		<path fill="#77870D" d="M1089.541,1080.32c0,0,110.987-170.689,293.089-170.689c182.103,0,290.044,170.689,290.044,170.689
			H1089.541z"/>
		<path fill="#B0C42F" d="M1397.494,981.075c0,7.285-5.132,13.188-11.461,13.188h-5.731c-6.331,0-11.462-5.903-11.462-13.188
			v-58.254c0-7.284,5.131-13.19,11.462-13.19h5.731c6.329,0,11.461,5.906,11.461,13.19V981.075z"/>
		<path fill="#B0C42F" d="M1528.35,1070.867c0,5.434-5.133,9.839-11.461,9.839h-5.729c-6.33,0-11.462-4.405-11.462-9.839v-43.465
			c0-5.436,5.132-9.841,11.462-9.841h5.729c6.328,0,11.461,4.405,11.461,9.841V1070.867z"/>
		<path fill="#B0C42F" d="M1315.352,1030.823c0,4.956-5.131,8.975-11.462,8.975h-5.73c-6.33,0-11.461-4.019-11.461-8.975v-39.628
			c0-4.955,5.131-8.975,11.461-8.975h5.73c6.331,0,11.462,4.02,11.462,8.975V1030.823z"/>
		<path fill="#B0C42F" d="M1397.494,993.682c0,4.71-6.755,8.527-15.088,8.527h-80.475c-8.333,0-15.089-3.817-15.089-8.527v-4.262
			c0-4.709,6.756-8.526,15.089-8.526h80.475c8.333,0,15.088,3.817,15.088,8.526V993.682z"/>
		<path fill="#B0C42F" d="M1527.953,1029.979c0,4.709-14.721,8.526-32.879,8.526h-175.353c-18.159,0-32.879-3.817-32.879-8.526
			v-4.263c0-4.71,14.72-8.525,32.879-8.525h175.353c18.158,0,32.879,3.815,32.879,8.525V1029.979z"/>
	</g>
	<g id="Capa_2_1_">
		<g id="Capa_13_1_">
			<path fill="#77870D" d="M0,1080c0,0,210.34-322.484,555.453-322.484c345.115,0,549.682,322.484,549.682,322.484H0z"/>
		</g>
	</g>
	<g id="Capa_7_1_">
		<g id="Capa_9_1_">
			<polygon fill="#6B3006" points="446.174,675.885 534.151,675.885 571.671,627.799 488.868,627.598 			"/>
			<rect x="445.526" y="676.531" fill="#A98F77" width="87.978" height="98.328"/>
			<polygon fill="#FFEFD7" points="609.837,774.859 533.503,774.859 533.503,676.531 571.671,627.799 609.837,676.531 			"/>
			<rect x="493.541" y="704.995" fill="#E3E3CA" width="15.525" height="41.401"/>
			<rect x="495.984" y="704.995" fill="#0D403B" width="15.526" height="41.401"/>
			<rect x="561.967" y="703.072" fill="#AC9284" width="19.059" height="46.012"/>
			<rect x="561.967" y="704.995" fill="#126A68" width="15.309" height="41.401"/>
			<path fill="#AC9284" d="M559.462,682.713c0-10.788,5.76-19.138,12.863-19.138c7.106,0,12.865,8.35,12.865,19.138H559.462z"/>
			<path fill="#126A68" d="M560.594,682.072c0-8.952,4.958-16.252,11.077-16.252c6.117,0,11.078,7.3,11.078,16.252H560.594z"/>
		</g>
	</g>
	<g id="Capa_5_1_">
		<g id="Capa_11">
			<polygon fill="#A89076" points="831.016,1080 720.694,1080 720.694,826.564 831.016,807.184 			"/>
			<rect x="831.016" y="808.676" fill="#FEEFD7" width="313.066" height="271.324"/>
			<rect x="1058.022" y="916.013" fill="#DFD1BE" width="41.743" height="163.987"/>
			<rect x="776.438" y="916.013" fill="#E9F0DF" width="20.87" height="163.987"/>
			<rect x="786.29" y="916.013" fill="#183027" width="20.87" height="163.987"/>
			<rect x="1039.725" y="916.013" fill="#0A6E78" width="41.742" height="163.987"/>
			<rect x="977.794" y="916.013" fill="#DFD1BE" width="41.743" height="163.987"/>
			<rect x="959.498" y="916.013" fill="#0A6E78" width="41.74" height="163.987"/>
			<rect x="893.345" y="916.013" fill="#DFD1BE" width="41.742" height="163.987"/>
			<rect x="875.046" y="916.013" fill="#0A6E78" width="41.742" height="163.987"/>
		</g>
	</g>
	<g id="Capa_15">
		<circle fill="#BCCF43" cx="684.631" cy="922.405" r="64.271"/>
		<rect x="685.761" y="895.443" fill="#68573C" width="5.238" height="180.654"/>
		
			<rect x="694.96" y="931.135" transform="matrix(-0.841 -0.541 0.541 -0.841 771.3295 2122.9583)" fill="#68573C" width="5.237" height="34.034"/>
		
			<rect x="671.313" y="911.328" transform="matrix(0.541 -0.841 0.841 0.541 -471.4264 992.8717)" fill="#68573C" width="5.235" height="34.034"/>
		<circle fill="#BCCF43" cx="1179.213" cy="964.228" r="49.668"/>
		<rect x="1180.086" y="940.392" fill="#68573C" width="4.049" height="139.608"/>
		
			<rect x="1187.159" y="967.978" transform="matrix(-0.841 -0.541 0.541 -0.841 1658.5593 2449.6157)" fill="#68573C" width="4.045" height="26.303"/>
		
			<rect x="1168.917" y="952.633" transform="matrix(0.5409 -0.8411 0.8411 0.5409 -274.7118 1428.3103)" fill="#68573C" width="4.046" height="26.302"/>
	</g>
	<g id="Capa_9">
		<polygon fill="#6B3006" points="406.518,925.216 544.104,925.216 602.779,850.017 473.286,849.7 		"/>
		<rect x="405.505" y="926.228" fill="#A98F77" width="137.586" height="153.772"/>
		<polygon fill="#FFEFD7" points="662.467,1080 543.091,1080 543.091,926.228 602.779,850.017 662.467,926.228 		"/>
		<rect x="480.594" y="970.742" fill="#E3E3CA" width="24.28" height="64.745"/>
		<rect x="484.415" y="970.742" fill="#0D403B" width="24.28" height="64.745"/>
		<rect x="587.604" y="967.735" fill="#AC9284" width="29.807" height="71.955"/>
		<rect x="587.604" y="970.742" fill="#126A68" width="23.942" height="64.745"/>
		<path fill="#AC9284" d="M583.686,935.895c0-16.871,9.008-29.929,20.118-29.929c11.112,0,20.119,13.058,20.119,29.929H583.686z"/>
		<path fill="#126A68" d="M585.457,934.893c0-14,7.755-25.415,17.322-25.415s17.324,11.415,17.324,25.415H585.457z"/>
	</g>
	<g id="Capa_4">
		<rect x="133.368" y="731.991" fill="none" stroke="#FEE5AC" stroke-miterlimit="10" width="44.514" height="56.651"/>
		<polygon fill="#ED9961" points="453.053,1080 335.701,1080 334.05,622.058 394.377,536.74 453.053,622.73 		"/>
		<rect x="360.953" y="673.286" opacity="0.5" fill="#C85F32" enable-background="new    " width="26.744" height="68.771"/>
		<rect x="360.953" y="675.674" fill="#0F5E63" width="21.969" height="63.519"/>
		<rect x="406.8" y="673.286" opacity="0.5" fill="#C85F32" enable-background="new    " width="26.744" height="68.771"/>
		<rect x="406.8" y="675.674" fill="#0F5E63" width="21.968" height="63.519"/>
		<rect x="360.953" y="783.129" opacity="0.5" fill="#C85F32" enable-background="new    " width="26.744" height="68.771"/>
		<rect x="360.953" y="785.516" fill="#0F5E63" width="21.969" height="63.519"/>
		<rect x="406.8" y="783.129" opacity="0.5" fill="#C85F32" enable-background="new    " width="26.744" height="68.771"/>
		<rect x="406.8" y="785.516" fill="#0F5E63" width="21.968" height="63.519"/>
		<rect x="362.864" y="892.016" opacity="0.5" fill="#C85F32" enable-background="new    " width="26.745" height="68.771"/>
		<rect x="362.864" y="894.403" fill="#0F5E63" width="21.969" height="63.519"/>
		<rect x="408.711" y="892.016" opacity="0.5" fill="#C85F32" enable-background="new    " width="26.744" height="68.771"/>
		<rect x="408.711" y="894.403" fill="#0F5E63" width="21.968" height="63.519"/>
		<path opacity="0.5" fill="#C85F32" enable-background="new    " d="M375.365,631.257h40.403c0-15.456-9.044-27.699-20.203-27.699
			C384.41,603.557,375.365,615.801,375.365,631.257z"/>
		<path fill="#0F5E63" d="M378.447,627.916h34.646c0-12.416-7.756-22.257-17.323-22.257S378.447,615.5,378.447,627.916z"/>
		<polygon fill="#6B3006" points="194.068,622.058 259.23,536.74 394.377,536.74 335.701,622.058 		"/>
	</g>
	<g id="Capa_7">
		<rect x="194.068" y="622.059" fill="#C85F32" width="141.633" height="457.941"/>
	</g>
	<g id="Capa_5">
		<polygon fill="#A98F74" points="0,1080 72.839,1080 72.839,804.83 36.419,716.477 0,797.41 		"/>
		<rect x="72.839" y="804.83" fill="#E8B67F" width="163.889" height="275.17"/>
		<rect x="110.171" y="855.719" fill="#C0A26E" width="36.295" height="80.233"/>
		<rect x="110.271" y="860.471" fill="#0F5E63" width="28.326" height="72.841"/>
		<rect x="110.171" y="958.877" fill="#C0A26E" width="36.295" height="80.231"/>
		<rect x="110.271" y="963.629" fill="#0F5E63" width="28.326" height="72.838"/>
		<rect x="173.211" y="958.877" fill="#C0A26E" width="36.296" height="80.231"/>
		<rect x="173.311" y="963.629" fill="#0F5E63" width="28.327" height="72.838"/>
		<rect x="174.166" y="855.719" fill="#C0A26E" width="36.295" height="80.233"/>
		<rect x="174.266" y="860.471" fill="#0F5E63" width="28.326" height="72.841"/>
		<polygon fill="#9D4D09" points="72.839,805.842 236.728,805.842 190.192,716.477 36.419,716.477 		"/>
		<polygon fill="#693001" points="153.208,783.309 123.135,783.309 103.803,730.597 153.208,726.654 		"/>
		<rect x="123.135" y="726.654" fill="#E8B67F" width="42.489" height="56.654"/>
		<rect x="135.244" y="734.176" fill="#C0A26E" width="22.446" height="46.088"/>
		<rect x="137.742" y="736.125" fill="#0F5E63" width="17.321" height="44.538"/>
		<polygon fill="#0B3E3F" points="141.373,778.353 137.87,780.263 137.87,736.327 141.373,739.191 		"/>
		<polygon fill="#0B3E3F" points="151.242,778.353 154.744,780.263 154.744,736.327 151.242,739.191 		"/>
		<rect x="137.87" y="736.327" fill="#0B3E3F" width="17.193" height="2.864"/>
		<rect x="137.87" y="777.398" fill="#0B3E3F" width="17.193" height="2.864"/>
	</g>
	<g id="Capa_6">
		<path fill="#C8DC4E" d="M251.733,851.808c0,0,42.152,117.354,30.687,169.959c-11.465,52.606-68.794,26.301-64.071-2.698
			C216.663,986.655,227.115,887.555,251.733,851.808z"/>
		<rect x="247.686" y="942.497" fill="#68573C" width="4.047" height="139.61"/>
		
			<rect x="254.854" y="970.116" transform="matrix(-0.8411 -0.5409 0.5409 -0.8411 -58.8792 1949.238)" fill="#68573C" width="4.046" height="26.304"/>
		
			<rect x="236.444" y="991.019" transform="matrix(0.541 -0.8411 0.8411 0.541 -735.0944 661.5262)" fill="#68573C" width="4.046" height="26.306"/>
	</g>
	<g id="Capa_6_copia">
		<path fill="#81A229" d="M1877.487,781.991c0,0,54.547,151.855,39.71,219.928c-14.838,68.073-89.021,34.035-82.908-3.491
			C1832.105,956.486,1845.631,828.249,1877.487,781.991z"/>
		<rect x="1872.251" y="899.347" fill="#68573C" width="5.235" height="180.653"/>
		
			<rect x="1881.498" y="935.136" transform="matrix(-0.8409 -0.5412 0.5412 -0.8409 2953.1509 2772.5002)" fill="#68573C" width="5.236" height="34.037"/>
		
			<rect x="1857.82" y="962.198" transform="matrix(0.5407 -0.8412 0.8412 0.5407 30.7438 2014.739)" fill="#68573C" width="5.236" height="34.034"/>
	</g>
	<g id="Capa_16">
	</g>
	<circle fill="#F2D697" cx="1364.216" cy="692.5" r="11.333"/>
	<circle fill="#1B7F85" cx="1360.188" cy="692.5" r="11.333"/>
	<circle fill="#A48855" cx="1308.818" cy="692.5" r="11.333"/>
	<circle fill="#0D403B" cx="1311.91" cy="692.5" r="11.333"/>
	<g>
		<circle fill="#BCCF43" cx="695.868" cy="717.14" r="44.229"/>
		<rect x="696.646" y="698.586" fill="#68573C" width="3.604" height="124.32"/>
		
			<rect x="702.977" y="723.148" transform="matrix(-0.8411 -0.5409 0.5409 -0.8411 900.0388 1734.1604)" fill="#68573C" width="3.603" height="23.421"/>
		
			<rect x="686.704" y="709.518" transform="matrix(0.5411 -0.8409 0.8409 0.5411 -290.5709 909.9594)" fill="#68573C" width="3.602" height="23.421"/>
	</g>
	<g id="Capa_6_1_">
		<path fill="#C8DC4E" d="M1887.336,849.7c0,0,42.152,117.354,30.688,169.959c-11.465,52.606-68.794,26.301-64.07-2.698
			C1852.267,984.548,1862.719,885.447,1887.336,849.7z"/>
		<rect x="1883.289" y="940.39" fill="#68573C" width="4.047" height="139.61"/>
		
			<rect x="1890.457" y="968.008" transform="matrix(-0.8411 -0.5409 0.5409 -0.8411 2953.583 2830.0027)" fill="#68573C" width="4.046" height="26.304"/>
		
			<rect x="1872.048" y="988.912" transform="matrix(0.5409 -0.8411 0.8411 0.5409 17.6023 2036.3765)" fill="#68573C" width="4.046" height="26.306"/>
	</g>
	<g id="Capa_6_copia_1_">
		<path fill="#81A229" d="M1536.487,673.991c0,0,54.547,151.855,39.71,219.928c-14.838,68.073-89.021,34.035-82.908-3.491
			C1491.105,848.486,1504.631,720.249,1536.487,673.991z"/>
		<rect x="1531.251" y="791.347" fill="#68573C" width="5.235" height="180.653"/>
		
			<rect x="1540.498" y="827.136" transform="matrix(-0.8409 -0.5412 0.5412 -0.8409 2383.856 2389.1343)" fill="#68573C" width="5.236" height="34.037"/>
		
			<rect x="1516.82" y="854.198" transform="matrix(0.5407 -0.8412 0.8412 0.5407 -35.0208 1678.2867)" fill="#68573C" width="5.236" height="34.034"/>
	</g>
	<g id="Capa_6_copia_2_">
		<path fill="#81A229" d="M294.866,781.862c0,0,54.547,151.855,39.71,219.928c-14.838,68.073-89.021,34.035-82.908-3.491
			C249.484,956.357,263.01,828.12,294.866,781.862z"/>
		<rect x="289.63" y="899.218" fill="#68573C" width="5.235" height="180.653"/>
		
			<rect x="298.877" y="935.007" transform="matrix(-0.8409 -0.5412 0.5412 -0.8409 39.7836 1915.7477)" fill="#68573C" width="5.236" height="34.037"/>
		
			<rect x="275.199" y="962.069" transform="matrix(0.5407 -0.8412 0.8412 0.5407 -696.0142 683.3746)" fill="#68573C" width="5.236" height="34.034"/>
	</g>
	<g>
		<path fill="#7A9D4A" d="M297.694,1001.004"/>
		<path fill="#7A9D4A" d="M336.161,978.245"/>
		<path fill="#B7CD82" d="M308.92,1004.701"/>
		<path fill="#B7CD82" d="M337.961,995.598"/>
		<path fill="#A8C46C" d="M325.731,999.432"/>
		<path fill="#A8C46C" d="M371.642,1009.105"/>
		<path fill="#A8C46C" d="M271.482,995.684"/>
		<path fill="#A8C46C" d="M350.063,971.047"/>
		<path fill="#A8C46C" d="M350.063,971.047"/>
		<path fill="#7A9D4A" d="M65.19,1078.879c9.107-33.507,16.889-65.229,20.502-87.409c0,0-11.855,37.005-28.535,87.409H65.19z"/>
		<path fill="#7A9D4A" d="M85.563,1078.879c6.957-26.602,12.684-51.065,15.634-69.171c0,0-9.075,28.327-22.517,69.171H85.563z"/>
		<path fill="#7A9D4A" d="M71.321,1078.879c6.957-26.602,12.342-49.748,15.291-67.854c0,0-9.225,27.01-22.668,67.854H71.321z"/>
		<path fill="#688945" d="M3.307,1077.159c20.6-31.435,42.502-56.062,65.469-69.962c-13.225,25.133-25.444,48.89-36.889,71.682
			H3.307V1077.159z"/>
		<path fill="#7A9D4A" d="M3.307,1009.381c14.196-17.456,28.929-31.35,44.123-40.548c-16.049,30.508-30.634,59.004-44.123,86.176
			V1009.381z"/>
		<path fill="#B7CD82" d="M55.043,1078.879c12.623-50.579,19.482-83.73,19.482-83.73c-10.71,29.676-20.717,57.439-30.249,83.73
			H55.043z"/>
		<path fill="#B7CD82" d="M23.883,1078.879c14.072-55.643,21.756-92.786,21.756-92.786c-11.945,33.104-23.021,63.829-33.533,92.786
			H23.883z"/>
		<path fill="#B7CD82" d="M3.307,1017.504c1.065-1.321,2.133-2.643,3.211-3.967c-1.078,1.749-2.146,3.492-3.211,5.234V1017.504z"/>
		<path fill="#A8C46C" d="M63.944,1078.879c0.717-30.113-1.077-59.994-6.14-88.973c-5.716,27.652-14.427,56.918-22.085,88.973
			H63.944z"/>
		<path fill="#A8C46C" d="M3.307,1035.854c2.97-11.912,5.916-24.013,8.83-36.325c-2.514,25.058-5.484,49.074-8.83,72.16V1035.854z"
			/>
		<path fill="#699E4E" d="M42.262,1078.879c4.574-18.564,8.262-35.373,10.437-48.716c0,0-6.146,19.183-15.808,48.716H42.262z"/>
		<path fill="#A8C46C" d="M94.731,1078.879c10.022-45.797,17.322-82.92,17.035-92.701c0,0-10.689,39.595-25.521,92.701H94.731z"/>
		<path fill="#A8C46C" d="M3.307,1071.408c17.257-61.448,30.295-109.735,30.295-109.735c0.337,11.478-9.773,60.596-22.467,117.206
			H3.307V1071.408z"/>
		<path fill="#BCCC59" d="M35.551,1078.879c0.908-5.858,1.545-11.054,1.861-15.443c0,0-1.779,5.677-4.863,15.443H35.551z"/>
		<path fill="#8CB14C" d="M3.307,1026.944c3.447,15.324,5.006,33.05,5.229,51.935H3.307V1026.944z"/>
		<path fill="#8CB14C" d="M35.524,1078.879c7.883-22.442,13.082-37.173,13.082-37.173c-5.636,9.207-12.283,22.017-19.525,37.173
			H35.524z"/>
		<path fill="#A8C46C" d="M79.886,1078.879c2.44-18.136,4.653-36.832,6.591-56.15c-4.635,19.581-11.328,38.025-17.54,56.15H79.886z"
			/>
		<path fill="#5F944B" d="M17.22,1078.879c6.644-25.576,12.098-49.032,14.952-66.536c0,0-8.689,27.12-21.651,66.536H17.22z"/>
		<polygon fill="#5F944B" points="94.731,1078.879 111.774,1043.038 106.916,1078.876 		"/>
		<polygon fill="#A8C46C" points="103.952,1078.876 101.973,1052.247 97.031,1078.876 		"/>
	</g>
</g>
<g id="Capa_8_1_">
</g>
</svg>
